<svg width="80" height="64" viewBox="0 0 80 64" fill="none" xmlns="http://www.w3.org/2000/svg">
<path fill-rule="evenodd" clip-rule="evenodd" d="M31.813 64C49.3829 64 63.6261 49.7635 63.6261 32.202C63.6261 14.6404 49.3829 0.403947 31.813 0.403947C14.2432 0.403947 0 14.6404 0 32.202C0 49.7635 14.2432 64 31.813 64ZM31.813 60.7935C47.6111 60.7935 60.418 47.9926 60.418 32.202C60.418 16.4113 47.6111 3.61047 31.813 3.61047C16.0149 3.61047 3.20804 16.4113 3.20804 32.202C3.20804 47.9926 16.0149 60.7935 31.813 60.7935Z" fill="#2F2F2F"/>
<path d="M22.5482 46.8984V45.2091C23.8303 45.2091 24.7433 45.1314 25.2873 44.9761C25.8312 44.8207 26.1615 44.5295 26.278 44.1023C26.4335 43.6363 26.5112 42.9567 26.5112 42.0635V24.7044C26.5112 23.6947 26.3946 23.0345 26.1615 22.7239C25.9284 22.3743 25.4816 22.1996 24.8211 22.1996H22.8396V20.452L29.7165 19.287H31.2901V24.7627H31.4649V42.0635C31.4649 42.9955 31.5426 43.6945 31.698 44.1605C31.8923 44.5877 32.3002 44.879 32.9219 45.0343C33.5435 45.1508 34.5343 45.2091 35.8941 45.2091V46.8984H22.5482ZM31.2318 30.4714V25.1122C31.5038 24.6073 31.834 24.0054 32.2225 23.3064C32.6111 22.6074 33.0967 21.9277 33.6795 21.2676C34.2623 20.6074 34.9617 20.0637 35.7776 19.6365C36.5935 19.1705 37.526 18.9375 38.575 18.9375C39.9737 18.9375 41.0421 19.3453 41.7803 20.1608C42.5574 20.9763 42.9459 22.1025 42.9459 23.5394C42.9459 24.6268 42.674 25.5199 42.13 26.219C41.6249 26.918 40.7896 27.2675 39.624 27.2675C38.6138 27.2675 37.8562 26.9957 37.3511 26.452C36.846 25.9083 36.5935 25.2675 36.5935 24.5297C36.5935 23.9471 36.71 23.4811 36.9432 23.1316C37.1763 22.7821 37.4094 22.4908 37.6425 22.2578C37.8756 22.0248 37.9922 21.7918 37.9922 21.5588C37.9922 21.4035 37.9339 21.287 37.8173 21.2093C37.7008 21.0928 37.5065 21.0346 37.2346 21.0346C36.6518 21.0346 36.0301 21.287 35.3696 21.7918C34.7091 22.2578 34.068 22.9374 33.4464 23.8306C32.8636 24.685 32.3779 25.6753 31.9894 26.8015C31.6397 27.9277 31.4649 29.1316 31.4649 30.4131L31.2318 30.4714Z" fill="#2F2F2F"/>
<path d="M68.7847 17.5204C67.6555 17.5204 66.6631 17.3665 65.8076 17.0587C64.9522 16.7338 64.2849 16.2549 63.8058 15.6222C63.3268 14.9894 63.0872 14.2028 63.0872 13.2622C63.0872 12.4755 63.2412 11.8086 63.5492 11.2613C63.8743 10.697 64.2849 10.2181 64.7811 9.82479C65.2944 9.41435 65.8504 9.05522 66.4493 8.7474C67.0481 8.43957 67.6298 8.13174 68.1944 7.82392C69.1354 7.31087 69.854 6.83203 70.3502 6.3874C70.8635 5.94276 71.2143 5.48957 71.4025 5.02783C71.5907 4.54899 71.6848 4.03595 71.6848 3.4887C71.6848 2.53102 71.488 1.85551 71.0945 1.46218C70.701 1.05174 70.2048 0.846522 69.606 0.846522C68.9216 0.846522 68.3912 1.07739 68.0148 1.53913C67.6555 1.98377 67.4758 2.62507 67.4758 3.46305C67.4758 3.73667 67.5186 4.05305 67.6041 4.41218C67.6897 4.75421 67.8779 5.16464 68.1688 5.64348C68.4596 6.12232 68.9045 6.69522 69.5033 7.36218L74.9441 13.2878C75.6114 14.0061 76.1846 14.5875 76.6636 15.0322C77.1427 15.4597 77.5619 15.7846 77.9212 16.007C78.2976 16.2293 78.6484 16.3832 78.9734 16.4687C79.2985 16.5371 79.6407 16.5713 80 16.5713V17.2383H78.4345C77.3908 17.2383 76.5439 17.1699 75.8937 17.0331C75.2435 16.8791 74.6875 16.6483 74.2255 16.3404C73.7807 16.0155 73.3187 15.5965 72.8397 15.0835L66.7829 8.59348C66.4407 8.21725 66.1413 7.81537 65.8846 7.38783C65.628 6.94319 65.4227 6.4729 65.2687 5.97696C65.1318 5.48102 65.0634 4.96797 65.0634 4.43783C65.0634 3.53145 65.2601 2.75334 65.6537 2.10348C66.0472 1.43652 66.6032 0.92348 67.3218 0.564349C68.0404 0.188116 68.8703 0 69.8113 0C70.5128 0 71.1544 0.11116 71.7361 0.333479C72.3349 0.555798 72.814 0.906378 73.1733 1.38522C73.5326 1.86406 73.7123 2.48826 73.7123 3.25783C73.7123 3.82218 73.601 4.33522 73.3786 4.79696C73.1562 5.2416 72.8226 5.66913 72.3777 6.07957C71.95 6.49 71.4025 6.91754 70.7352 7.36218C70.085 7.80682 69.3237 8.31986 68.4511 8.90131C68.0747 9.15783 67.6897 9.44001 67.2962 9.74783C66.9198 10.0386 66.6032 10.3977 66.3466 10.8252C66.1071 11.2528 65.9873 11.8 65.9873 12.467C65.9873 13.2023 66.1584 13.8351 66.5006 14.3652C66.8428 14.8954 67.3133 15.2973 67.9121 15.5709C68.511 15.8445 69.1953 15.9813 69.9653 15.9813C70.9063 15.9813 71.7703 15.7932 72.5574 15.417C73.3615 15.0407 74.0544 14.5533 74.6362 13.9548C75.2179 13.3391 75.6627 12.6978 75.9707 12.0309C76.2958 11.3468 76.4583 10.697 76.4583 10.0813C76.4583 9.77349 76.3984 9.53406 76.2787 9.36305C76.1589 9.17493 75.9365 9.04667 75.6114 8.97827C75.2863 8.90986 74.8073 8.87566 74.1742 8.87566V8.23435H79.3327V8.87566C78.8879 8.87566 78.5542 8.90986 78.3318 8.97827C78.1265 9.04667 77.9725 9.16638 77.8699 9.3374C77.7843 9.49131 77.6902 9.72218 77.5876 10.03C77.2625 11.039 76.8946 11.9454 76.484 12.7491C76.0734 13.5358 75.6029 14.2284 75.0725 14.827C74.5592 15.4255 73.986 15.93 73.3529 16.3404C72.7199 16.7338 72.0184 17.0331 71.2485 17.2383C70.4957 17.4264 69.6744 17.5204 68.7847 17.5204Z" fill="#2F2F2F"/>
</svg>
