<svg width="356" height="356" viewBox="0 0 356 356" fill="none" xmlns="http://www.w3.org/2000/svg">
<path d="M158.622 178.776H139.09C134.963 178.776 131.112 178.776 127.261 178.502C123.409 178.227 120.108 177.404 117.082 176.032C114.331 174.934 111.855 173.013 110.204 170.269C108.553 167.524 107.453 163.957 107.453 159.017C107.453 155.175 108.278 151.882 109.929 149.412C111.58 147.216 113.505 145.295 115.981 143.923C118.457 142.825 121.208 142.002 124.509 141.453C127.811 140.904 130.837 140.63 133.863 140.63H158.622V178.776ZM177.33 125.536H130.837C116.531 125.536 106.077 128.555 99.1998 134.044C92.3222 139.807 88.7459 148.314 88.7459 159.84C88.7459 170.818 91.772 178.776 97.8243 183.716C103.877 188.656 111.58 191.674 120.383 192.498L85.9948 245.463H106.077L138.815 193.87H158.622V245.463H177.33V125.536ZM222.172 185.088C222.172 197.712 220.246 209.512 215.844 220.215C211.443 230.918 205.665 240.249 197.962 247.933C190.26 255.891 181.456 262.203 171.002 266.594C160.548 270.985 149.269 273.181 137.164 273.181C125.335 273.181 114.331 270.985 103.877 266.594C93.6977 262.203 84.8944 255.891 77.1915 247.933C69.4885 240.249 63.7113 230.918 59.3096 220.215C54.908 209.512 52.7071 197.712 52.7071 185.088C52.7071 173.013 54.908 161.487 59.3096 150.784C63.7113 140.356 69.4885 131.025 77.1915 123.341C84.8944 115.657 93.6977 109.345 103.877 104.954C114.331 100.563 125.335 98.3675 137.164 98.093C149.269 98.093 160.548 100.563 171.002 104.954C181.456 109.345 190.26 115.657 197.962 123.341C205.665 131.025 211.443 140.356 215.844 150.784C220.246 161.487 222.172 173.013 222.172 185.088ZM240.879 185.088C240.879 170.818 238.128 157.37 232.626 144.746C227.124 132.397 219.696 121.694 210.342 112.364C200.989 103.307 189.984 96.172 177.33 90.9578C164.675 85.7436 151.47 82.9993 137.164 82.9993C123.134 82.9993 109.929 85.7436 97.2741 90.9578C84.8944 96.172 74.1653 103.307 64.5366 112.364C55.1831 121.694 47.7552 132.397 42.2531 144.746C36.751 157.37 34 170.818 34 185.088C34 199.907 36.751 213.629 42.2531 226.253C47.7552 238.877 55.1831 249.58 64.5366 258.91C73.8902 268.241 84.8944 275.376 97.2741 280.316C109.929 285.53 123.134 288 137.164 288C151.47 288 164.675 285.53 177.33 280.316C189.984 275.376 200.989 268.241 210.342 258.91C219.696 249.58 227.124 238.877 232.626 226.253C238.128 213.629 240.879 199.907 240.879 185.088Z" fill="white"/>
<path d="M260.603 105.718C261.42 105.229 262.237 104.658 263.218 103.925C264.117 103.273 264.934 102.539 265.751 101.724C266.487 100.909 267.14 100.012 267.631 99.0338C268.121 98.0557 268.366 96.9144 268.366 95.6102C268.366 93.9799 267.712 92.5127 266.568 91.29C265.343 90.0672 263.708 89.4151 261.665 89.4151C260.031 89.4151 258.479 89.9857 257.089 90.9639C255.619 91.9421 254.965 93.4908 254.965 95.6102C254.883 96.5069 255.128 97.4035 255.455 98.2187C255.782 99.1153 256.272 100.012 256.844 100.827C257.335 101.642 257.988 102.457 258.642 103.273L260.603 105.718ZM275.557 134.248C273.759 137.02 271.389 139.057 268.366 140.362C265.343 141.747 262.237 142.4 259.051 142.4C255.128 142.4 251.941 141.829 249.572 140.606C247.12 139.465 245.323 137.998 244.015 136.286C242.708 134.656 241.809 132.862 241.4 131.069C240.992 129.276 240.828 127.808 240.828 126.586C240.828 124.303 241.155 122.347 241.891 120.554C242.626 118.842 243.607 117.293 244.832 115.907C246.058 114.522 247.529 113.299 249.163 112.158C250.797 111.016 252.595 109.957 254.475 108.979C253.657 107.837 252.84 106.778 252.105 105.718C251.288 104.74 250.634 103.68 249.98 102.62C249.327 101.561 248.836 100.42 248.509 99.2784C248.183 98.1372 248.019 96.8329 248.019 95.2842C248.019 93.7354 248.264 92.2681 248.836 90.8009C249.408 89.3336 250.225 88.1109 251.369 86.9697C252.513 85.8285 253.903 84.9318 255.537 84.2797C257.171 83.6276 259.051 83.3015 261.175 83.3015C262.973 83.3015 264.689 83.5461 266.405 84.0352C268.121 84.5243 269.673 85.3394 270.981 86.3176C272.288 87.2957 273.269 88.6 274.086 90.0672C274.903 91.5345 275.23 93.2463 275.312 95.2026C275.312 96.996 274.985 98.6263 274.413 100.094C273.759 101.561 272.942 102.947 271.961 104.169C270.899 105.473 269.755 106.615 268.448 107.593C267.14 108.571 265.751 109.468 264.362 110.283L274.903 123.081C275.965 120.065 276.619 117.049 276.783 114.032H283.401C283.238 115.826 282.993 117.293 282.829 118.516C282.666 119.738 282.421 120.88 282.094 121.858C281.767 122.918 281.44 123.977 281.032 124.955C280.541 125.934 280.051 127.075 279.479 128.379L290.837 141.503H281.767L275.557 134.248ZM258.315 113.38C256.926 114.196 255.619 114.929 254.393 115.744C253.167 116.559 252.105 117.538 251.206 118.516C250.225 119.575 249.49 120.717 249 122.021C248.428 123.325 248.183 124.792 248.183 126.504C248.183 127.971 248.428 129.357 249.081 130.58C249.735 131.803 250.552 132.862 251.615 133.677C252.595 134.493 253.821 135.145 255.128 135.634C256.436 136.123 257.825 136.367 259.296 136.367C261.911 136.367 264.28 135.797 266.405 134.493C268.529 133.27 270.245 131.558 271.716 129.439L258.315 113.38Z" fill="white"/>
<path d="M302.83 82.0577H305.678C306.28 82.0577 306.841 82.0577 307.403 82.0174C307.964 81.9771 308.446 81.8563 308.887 81.6549C309.288 81.4938 309.649 81.2118 309.889 80.809C310.13 80.4062 310.291 79.8826 310.291 79.1575C310.291 78.5936 310.17 78.1103 309.93 77.7478C309.689 77.4255 309.408 77.1436 309.047 76.9422C308.686 76.781 308.285 76.6602 307.804 76.5796C307.322 76.4991 306.881 76.4588 306.44 76.4588H302.83V82.0577ZM300.103 74.2434H306.881C308.967 74.2434 310.491 74.6865 311.494 75.4921C312.497 76.338 313.018 77.5866 313.018 79.2784C313.018 80.8896 312.577 82.0577 311.694 82.7827C310.812 83.5078 309.689 83.9509 308.405 84.0717L313.419 91.8457H310.491L305.718 84.2731H302.83V91.8457H300.103V74.2434ZM293.565 82.9841C293.565 84.837 293.845 86.5691 294.487 88.14C295.129 89.7109 295.971 91.0804 297.094 92.2083C298.217 93.3764 299.501 94.3028 301.025 94.9473C302.549 95.5918 304.194 95.914 305.959 95.914C307.683 95.914 309.288 95.5918 310.812 94.9473C312.296 94.3028 313.58 93.3764 314.703 92.2083C315.826 91.0804 316.668 89.7109 317.31 88.14C317.952 86.5691 318.272 84.837 318.272 82.9841C318.272 81.2118 317.952 79.5201 317.31 77.9492C316.668 76.4185 315.826 75.049 314.703 73.9212C313.58 72.7933 312.296 71.8669 310.812 71.2224C309.288 70.5779 307.683 70.2557 305.959 70.2154C304.194 70.2154 302.549 70.5779 301.025 71.2224C299.501 71.8669 298.217 72.7933 297.094 73.9212C295.971 75.049 295.129 76.4185 294.487 77.9492C293.845 79.5201 293.565 81.2118 293.565 82.9841ZM290.837 82.9841C290.837 80.8896 291.238 78.9159 292.04 77.063C292.843 75.2504 293.926 73.6795 295.289 72.31C296.653 70.9807 298.257 69.9334 300.103 69.1681C301.948 68.4028 303.873 68 305.959 68C308.004 68 309.93 68.4028 311.775 69.1681C313.58 69.9334 315.144 70.9807 316.548 72.31C317.912 73.6795 318.994 75.2504 319.797 77.063C320.599 78.9159 321 80.8896 321 82.9841C321 85.1593 320.599 87.1733 319.797 89.0261C318.994 90.879 317.912 92.4499 316.548 93.8195C315.184 95.189 313.58 96.2363 311.775 96.9613C309.93 97.7266 308.004 98.0891 305.959 98.0891C303.873 98.0891 301.948 97.7266 300.103 96.9613C298.257 96.2363 296.653 95.189 295.289 93.8195C293.926 92.4499 292.843 90.879 292.04 89.0261C291.238 87.1733 290.837 85.1593 290.837 82.9841Z" fill="white"/>
</svg>
