<svg width="299" height="239" viewBox="0 0 299 239" fill="none" xmlns="http://www.w3.org/2000/svg">
<path d="M144.607 111.409H121.942C117.154 111.409 112.685 111.409 108.216 111.089C103.747 110.77 99.9161 109.812 96.4047 108.216C93.2124 106.939 90.3394 104.705 88.4241 101.513C86.5088 98.3204 85.2319 94.1706 85.2319 88.4246C85.2319 83.9554 86.1896 80.1248 88.1049 77.2518C90.0202 74.698 92.2548 72.4634 95.1278 70.8673C98.0008 69.5904 101.193 68.6328 105.024 67.9943C108.854 67.3559 112.366 67.0367 115.877 67.0367H144.607V111.409ZM166.314 49.4794H112.366C95.7662 49.4794 83.6358 52.9909 75.6552 59.3753C67.6747 66.079 63.5248 75.9749 63.5248 89.3822C63.5248 102.151 67.0362 111.409 74.0591 117.155C81.082 122.901 90.0202 126.412 100.235 127.37L60.3326 188.98H83.6358L121.623 128.966H144.607V188.98H166.314V49.4794ZM218.348 118.751C218.348 133.435 216.113 147.161 211.005 159.611C205.898 172.061 199.194 182.914 190.256 191.853C181.318 201.11 171.103 208.452 158.972 213.56C146.842 218.667 133.754 221.221 119.708 221.221C105.981 221.221 93.2125 218.667 81.082 213.56C69.2708 208.452 59.0557 201.11 50.1174 191.853C41.1792 182.914 34.4756 172.061 29.368 159.611C24.2604 147.161 21.7067 133.435 21.7067 118.751C21.7067 104.705 24.2604 91.2975 29.368 78.8479C34.4756 66.7174 41.1792 55.8639 50.1174 46.9257C59.0557 37.9874 69.2708 30.6453 81.082 25.5378C93.2125 20.4302 105.981 17.8764 119.708 17.5572C133.754 17.5572 146.842 20.4302 158.972 25.5378C171.103 30.6453 181.318 37.9874 190.256 46.9257C199.194 55.8639 205.898 66.7174 211.005 78.8479C216.113 91.2975 218.348 104.705 218.348 118.751ZM240.055 118.751C240.055 102.151 236.862 86.5092 230.478 71.825C224.094 57.46 215.475 45.0103 204.621 34.1568C193.767 23.6224 180.999 15.3227 166.314 9.25744C151.63 3.19222 136.307 0 119.708 0C103.428 0 88.1049 3.19222 73.4207 9.25744C59.0557 15.3227 46.606 23.6224 35.4332 34.1568C24.5797 45.0103 15.9607 57.46 9.57622 71.825C3.19178 86.5092 -0.000442505 102.151 -0.000442505 118.751C-0.000442505 135.989 3.19178 151.95 9.57622 166.634C15.9607 181.318 24.5797 193.768 35.4332 204.621C46.2868 215.475 59.0557 223.775 73.4207 229.521C88.1049 235.586 103.428 238.459 119.708 238.459C136.307 238.459 151.63 235.586 166.314 229.521C180.999 223.775 193.767 215.475 204.621 204.621C215.475 193.768 224.094 181.318 230.478 166.634C236.862 151.95 240.055 135.989 240.055 118.751Z" fill="#1E1E1E"/>
<path d="M262.942 26.4267C263.89 25.8577 264.839 25.194 265.976 24.3406C267.019 23.5821 267.968 22.7287 268.916 21.7805C269.769 20.8324 270.528 19.7894 271.097 18.6515C271.665 17.5137 271.95 16.1862 271.95 14.6692C271.95 12.7728 271.191 11.0661 269.864 9.64377C268.442 8.2215 266.545 7.46295 264.175 7.46295C262.278 7.46295 260.477 8.12668 258.865 9.2645C257.158 10.4023 256.4 12.2039 256.4 14.6692C256.305 15.7122 256.589 16.7552 256.969 17.7034C257.348 18.7464 257.917 19.7894 258.581 20.7375C259.149 21.6857 259.908 22.6339 260.667 23.5821L262.942 26.4267ZM280.294 59.6131C278.208 62.8369 275.458 65.2074 271.95 66.7245C268.442 68.3364 264.839 69.095 261.141 69.095C256.589 69.095 252.891 68.4312 250.142 67.009C247.297 65.6815 245.211 63.9748 243.694 61.9836C242.177 60.0872 241.134 58.0012 240.66 55.9152C240.186 53.8292 239.996 52.1225 239.996 50.7002C239.996 48.0453 240.375 45.7696 241.229 43.6836C242.082 41.6924 243.22 39.8909 244.642 38.279C246.064 36.667 247.771 35.2448 249.668 33.9173C251.564 32.5899 253.65 31.3572 255.831 30.2194C254.883 28.8919 253.934 27.6593 253.081 26.4267C252.133 25.2888 251.374 24.0562 250.616 22.8235C249.857 21.5909 249.288 20.2634 248.909 18.936C248.53 17.6085 248.34 16.0914 248.34 14.2899C248.34 12.4883 248.625 10.7816 249.288 9.07486C249.952 7.36813 250.9 5.94586 252.228 4.6184C253.555 3.29094 255.167 2.24794 257.063 1.48939C258.96 0.730838 261.141 0.351562 263.606 0.351562C265.692 0.351562 267.683 0.63602 269.674 1.20493C271.665 1.77384 273.467 2.72203 274.984 3.85985C276.501 4.99767 277.639 6.51476 278.587 8.2215C279.535 9.92823 279.915 11.9194 280.009 14.1951C280.009 16.2811 279.63 18.1774 278.966 19.8842C278.208 21.5909 277.26 23.2028 276.122 24.6251C274.889 26.1422 273.562 27.4697 272.045 28.6075C270.528 29.7453 268.916 30.7883 267.304 31.7365L279.535 46.623C280.768 43.1147 281.527 39.6064 281.716 36.0981H289.397C289.207 38.1841 288.922 39.8909 288.733 41.3131C288.543 42.7354 288.259 44.0629 287.879 45.2007C287.5 46.4333 287.121 47.666 286.647 48.8038C286.078 49.9416 285.509 51.2691 284.845 52.7862L298.025 68.052H287.5L280.294 59.6131ZM260.287 35.3396C258.675 36.2878 257.158 37.1411 255.736 38.0893C254.314 39.0375 253.081 40.1753 252.038 41.3131C250.9 42.5458 250.047 43.8732 249.478 45.3903C248.814 46.9074 248.53 48.6142 248.53 50.6054C248.53 52.3121 248.814 53.924 249.573 55.3463C250.331 56.7686 251.279 58.0012 252.512 58.9494C253.65 59.8976 255.072 60.6561 256.589 61.225C258.106 61.7939 259.718 62.0784 261.425 62.0784C264.459 62.0784 267.209 61.4147 269.674 59.8976C272.14 58.4753 274.131 56.4841 275.837 54.0188L260.287 35.3396Z" fill="#1E1E1E"/>
</svg>
